<?xml version="1.0" encoding="UTF-8" standalone="no"?>
<!-- Created with Inkscape (http://www.inkscape.org/) -->

<svg
   xmlns:dc="http://purl.org/dc/elements/1.1/"
   xmlns:cc="http://creativecommons.org/ns#"
   xmlns:rdf="http://www.w3.org/1999/02/22-rdf-syntax-ns#"
   xmlns:svg="http://www.w3.org/2000/svg"
   xmlns="http://www.w3.org/2000/svg"
   xmlns:sodipodi="http://sodipodi.sourceforge.net/DTD/sodipodi-0.dtd"
   xmlns:inkscape="http://www.inkscape.org/namespaces/inkscape"
   width="594.74347"
   height="355.0712"
   id="svg2"
   version="1.1"
   inkscape:version="0.48.4 r9939"
   sodipodi:docname="Hierarchical_Clustering.pdf">
  <defs
     id="defs4" />
  <sodipodi:namedview
     id="base"
     pagecolor="#ffffff"
     bordercolor="#666666"
     borderopacity="1.0"
     inkscape:pageopacity="0.0"
     inkscape:pageshadow="2"
     inkscape:zoom="0.98994949"
     inkscape:cx="187.2818"
     inkscape:cy="320.90262"
     inkscape:document-units="px"
     inkscape:current-layer="layer1"
     showgrid="false"
     inkscape:snap-object-midpoints="true"
     inkscape:snap-bbox="true"
     inkscape:object-paths="true"
     inkscape:snap-intersection-paths="true"
     inkscape:object-nodes="true"
     inkscape:snap-smooth-nodes="true"
     inkscape:snap-midpoints="true"
     inkscape:window-width="1596"
     inkscape:window-height="861"
     inkscape:window-x="0"
     inkscape:window-y="37"
     inkscape:window-maximized="0"
     fit-margin-top="0"
     fit-margin-left="0"
     fit-margin-right="0"
     fit-margin-bottom="0" />
  <metadata
     id="metadata7">
    <rdf:RDF>
      <cc:Work
         rdf:about="">
        <dc:format>image/svg+xml</dc:format>
        <dc:type
           rdf:resource="http://purl.org/dc/dcmitype/StillImage" />
        <dc:title></dc:title>
      </cc:Work>
    </rdf:RDF>
  </metadata>
  <g
     inkscape:label="Layer 1"
     inkscape:groupmode="layer"
     id="layer1"
     transform="translate(-54.654526,-545.04413)">
    <path
       style="fill:none;stroke:#000000;stroke-width:1px;stroke-linecap:butt;stroke-linejoin:miter;stroke-opacity:1"
       d="m 105.05587,877.01189 1.01014,-96.37058 130.30968,0 -1.01015,96.37058"
       id="path3134"
       inkscape:connector-curvature="0" />
    <path
       sodipodi:type="arc"
       style="fill:#cccccc;fill-rule:evenodd;stroke:#000000;stroke-width:1px;stroke-linecap:butt;stroke-linejoin:miter;stroke-opacity:1"
       id="path2987"
       sodipodi:cx="107.07617"
       sodipodi:cy="949.3266"
       sodipodi:rx="30.304577"
       sodipodi:ry="30.304577"
       d="m 137.38075,949.3266 c 0,16.73675 -13.56782,30.30458 -30.30458,30.30458 -16.736754,0 -30.304575,-13.56783 -30.304575,-30.30458 0,-16.73676 13.567821,-30.30458 30.304575,-30.30458 16.73676,0 30.30458,13.56782 30.30458,30.30458 z"
       transform="matrix(0.75,0,0,0.75,24.748738,165.01694)" />
    <path
       style="fill:none;stroke:#000000;stroke-width:1px;stroke-linecap:butt;stroke-linejoin:miter;stroke-opacity:1"
       d="m 365.67524,877.01189 1.01014,-96.37058 130.30968,0 -1.01015,96.37058"
       id="path3134-8"
       inkscape:connector-curvature="0" />
    <path
       transform="matrix(0.75,0,0,0.75,285.3681,165.01694)"
       sodipodi:type="arc"
       style="fill:#cccccc;fill-rule:evenodd;stroke:#000000;stroke-width:1px;stroke-linecap:butt;stroke-linejoin:miter;stroke-opacity:1"
       id="path2987-5"
       sodipodi:cx="107.07617"
       sodipodi:cy="949.3266"
       sodipodi:rx="30.304577"
       sodipodi:ry="30.304577"
       d="m 137.38075,949.3266 c 0,16.73675 -13.56782,30.30458 -30.30458,30.30458 -16.736754,0 -30.304575,-13.56783 -30.304575,-30.30458 0,-16.73676 13.567821,-30.30458 30.304575,-30.30458 16.73676,0 30.30458,13.56782 30.30458,30.30458 z" />
    <path
       transform="matrix(0.75,0,0,0.75,415.67777,165.01694)"
       sodipodi:type="arc"
       style="fill:#cccccc;fill-rule:evenodd;stroke:#000000;stroke-width:1px;stroke-linecap:butt;stroke-linejoin:miter;stroke-opacity:1"
       id="path2987-6"
       sodipodi:cx="107.07617"
       sodipodi:cy="949.3266"
       sodipodi:rx="30.304577"
       sodipodi:ry="30.304577"
       d="m 137.38075,949.3266 c 0,16.73675 -13.56782,30.30458 -30.30458,30.30458 -16.736754,0 -30.304575,-13.56783 -30.304575,-30.30458 0,-16.73676 13.567821,-30.30458 30.304575,-30.30458 16.73676,0 30.30458,13.56782 30.30458,30.30458 z" />
    <flowRoot
       xml:space="preserve"
       id="flowRoot3404"
       style="font-size:40px;font-style:normal;font-weight:normal;line-height:125%;letter-spacing:0px;word-spacing:0px;fill:#000000;fill-opacity:1;stroke:none;font-family:Sans"><flowRegion
         id="flowRegion3406"><rect
           id="rect3408"
           width="133.34013"
           height="89.90358"
           x="50.507626"
           y="826.08801" /></flowRegion><flowPara
         id="flowPara3410" /></flowRoot>    <text
       xml:space="preserve"
       style="font-size:24px;font-style:normal;font-weight:normal;line-height:125%;letter-spacing:0px;word-spacing:0px;fill:#000000;fill-opacity:1;stroke:none;font-family:Sans"
       x="54.467026"
       y="891.59198"
       id="text3420"
       sodipodi:linespacing="125%"><tspan
         sodipodi:role="line"
         id="tspan3422"
         x="54.467026"
         y="891.59198">A</tspan></text>
    <path
       transform="matrix(0.75,0,0,0.75,155.05841,165.01694)"
       sodipodi:type="arc"
       style="fill:#cccccc;fill-rule:evenodd;stroke:#000000;stroke-width:1px;stroke-linecap:butt;stroke-linejoin:miter;stroke-opacity:1"
       id="path2987-1"
       sodipodi:cx="107.07617"
       sodipodi:cy="949.3266"
       sodipodi:rx="30.304577"
       sodipodi:ry="30.304577"
       d="m 137.38075,949.3266 c 0,16.73675 -13.56782,30.30458 -30.30458,30.30458 -16.736754,0 -30.304575,-13.56783 -30.304575,-30.30458 0,-16.73676 13.567821,-30.30458 30.304575,-30.30458 16.73676,0 30.30458,13.56782 30.30458,30.30458 z" />
    <text
       xml:space="preserve"
       style="font-size:24px;font-style:normal;font-weight:normal;line-height:125%;letter-spacing:0px;word-spacing:0px;fill:#000000;fill-opacity:1;stroke:none;font-family:Sans"
       x="186.24779"
       y="891.59198"
       id="text3424"
       sodipodi:linespacing="125%"><tspan
         sodipodi:role="line"
         id="tspan3426"
         x="186.24779"
         y="891.59198">B</tspan></text>
    <text
       xml:space="preserve"
       style="font-size:24px;font-style:normal;font-weight:normal;line-height:125%;letter-spacing:0px;word-spacing:0px;fill:#000000;fill-opacity:1;stroke:none;font-family:Sans"
       x="316.57544"
       y="891.59198"
       id="text3428"
       sodipodi:linespacing="125%"><tspan
         sodipodi:role="line"
         id="tspan3430"
         x="316.57544"
         y="891.59198">F</tspan></text>
    <text
       xml:space="preserve"
       style="font-size:24px;font-style:normal;font-weight:normal;line-height:125%;letter-spacing:0px;word-spacing:0px;fill:#000000;fill-opacity:1;stroke:none;font-family:Sans"
       x="445.55542"
       y="891.58026"
       id="text3432"
       sodipodi:linespacing="125%"><tspan
         sodipodi:role="line"
         id="tspan3434"
         x="445.55542"
         y="891.58026">G</tspan></text>
    <text
       xml:space="preserve"
       style="font-size:24px;font-style:normal;font-weight:normal;line-height:125%;letter-spacing:0px;word-spacing:0px;fill:#000000;fill-opacity:1;stroke:none;font-family:Sans"
       x="577.74634"
       y="891.59198"
       id="text3436"
       sodipodi:linespacing="125%"><tspan
         sodipodi:role="line"
         id="tspan3438"
         x="577.74634"
         y="891.59198">I</tspan></text>
    <text
       xml:space="preserve"
       style="font-size:24px;font-style:normal;font-weight:normal;line-height:125%;letter-spacing:0px;word-spacing:0px;fill:#000000;fill-opacity:1;stroke:none;font-family:Sans"
       x="106.57108"
       y="757.828"
       id="text3440"
       sodipodi:linespacing="125%"><tspan
         sodipodi:role="line"
         id="tspan3442"
         x="106.57108"
         y="757.828">AB</tspan></text>
    <text
       xml:space="preserve"
       style="font-size:24px;font-style:normal;font-weight:normal;line-height:125%;letter-spacing:0px;word-spacing:0px;fill:#000000;fill-opacity:1;stroke:none;font-family:Sans"
       x="369.14981"
       y="757.81628"
       id="text3444"
       sodipodi:linespacing="125%"><tspan
         sodipodi:role="line"
         id="tspan3446"
         x="369.14981"
         y="757.81628">FG</tspan></text>
    <text
       xml:space="preserve"
       style="font-size:24px;font-style:normal;font-weight:normal;line-height:125%;letter-spacing:0px;word-spacing:0px;fill:#000000;fill-opacity:1;stroke:none;font-family:Sans"
       x="461.61938"
       y="659.97003"
       id="text3448"
       sodipodi:linespacing="125%"><tspan
         sodipodi:role="line"
         id="tspan3450"
         x="461.61938"
         y="659.97003">FGI</tspan></text>
    <text
       xml:space="preserve"
       style="font-size:24px;font-style:normal;font-weight:normal;line-height:125%;letter-spacing:0px;word-spacing:0px;fill:#000000;fill-opacity:1;stroke:none;font-family:Sans"
       x="248.47722"
       y="562.85663"
       id="text3452"
       sodipodi:linespacing="125%"><tspan
         sodipodi:role="line"
         id="tspan3454"
         x="248.47722"
         y="562.85663">ABFGI</tspan></text>
    <path
       style="fill:none;stroke:#000000;stroke-width:1px;stroke-linecap:butt;stroke-linejoin:miter;stroke-opacity:1"
       d="m 389.78866,338.61495 192.83807,0"
       id="path3366"
       inkscape:connector-curvature="0"
       transform="translate(43.667847,345.76555)" />
    <path
       style="fill:none;stroke:#000000;stroke-width:1px;stroke-linecap:butt;stroke-linejoin:miter;stroke-opacity:1"
       d="m 387.6673,433.84783 2.12136,-95.23288"
       id="path3393"
       inkscape:connector-curvature="0"
       transform="translate(43.667847,345.76555)" />
    <path
       transform="matrix(0.75,0,0,0.75,351.02802,67.61843)"
       sodipodi:type="arc"
       style="fill:#cccccc;fill-rule:evenodd;stroke:#000000;stroke-width:1px;stroke-linecap:butt;stroke-linejoin:miter;stroke-opacity:1"
       id="path2987-1-9"
       sodipodi:cx="107.07617"
       sodipodi:cy="949.3266"
       sodipodi:rx="30.304577"
       sodipodi:ry="30.304577"
       d="m 137.38075,949.3266 c 0,16.73675 -13.56782,30.30458 -30.30458,30.30458 -16.736754,0 -30.304575,-13.56783 -30.304575,-30.30458 0,-16.73676 13.567821,-30.30458 30.304575,-30.30458 16.73676,0 30.30458,13.56782 30.30458,30.30458 z" />
    <path
       style="fill:none;stroke:#000000;stroke-width:1px;stroke-linecap:butt;stroke-linejoin:miter;stroke-opacity:1"
       d="m 582.62673,531.24634 0,-192.63139"
       id="path3395"
       inkscape:connector-curvature="0"
       transform="translate(43.667847,345.76555)" />
    <path
       transform="matrix(0.75,0,0,0.75,545.98745,165.01694)"
       sodipodi:type="arc"
       style="fill:#cccccc;fill-rule:evenodd;stroke:#000000;stroke-width:1px;stroke-linecap:butt;stroke-linejoin:miter;stroke-opacity:1"
       id="path2987-2"
       sodipodi:cx="107.07617"
       sodipodi:cy="949.3266"
       sodipodi:rx="30.304577"
       sodipodi:ry="30.304577"
       d="m 137.38075,949.3266 c 0,16.73675 -13.56782,30.30458 -30.30458,30.30458 -16.736754,0 -30.304575,-13.56783 -30.304575,-30.30458 0,-16.73676 13.567821,-30.30458 30.304575,-30.30458 16.73676,0 30.30458,13.56782 30.30458,30.30458 z" />
    <path
       style="fill:none;stroke:#000000;stroke-width:1px;stroke-linecap:butt;stroke-linejoin:miter;stroke-opacity:1"
       d="m 170.71578,779.61338 0,-192.63139"
       id="path3395-9"
       inkscape:connector-curvature="0" />
    <path
       transform="matrix(0.75,0,0,0.75,90.408649,67.61843)"
       sodipodi:type="arc"
       style="fill:#cccccc;fill-rule:evenodd;stroke:#000000;stroke-width:1px;stroke-linecap:butt;stroke-linejoin:miter;stroke-opacity:1"
       id="path2987-1-5"
       sodipodi:cx="107.07617"
       sodipodi:cy="949.3266"
       sodipodi:rx="30.304577"
       sodipodi:ry="30.304577"
       d="m 137.38075,949.3266 c 0,16.73675 -13.56782,30.30458 -30.30458,30.30458 -16.736754,0 -30.304575,-13.56783 -30.304575,-30.30458 0,-16.73676 13.567821,-30.30458 30.304575,-30.30458 16.73676,0 30.30458,13.56782 30.30458,30.30458 z" />
    <path
       style="fill:none;stroke:#000000;stroke-width:1px;stroke-linecap:butt;stroke-linejoin:miter;stroke-opacity:1"
       d="m 529.87554,684.3805 2.12136,-95.23288"
       id="path3393-4"
       inkscape:connector-curvature="0" />
    <path
       transform="matrix(0.75,0,0,0.75,449.56841,-27.61445)"
       sodipodi:type="arc"
       style="fill:#cccccc;fill-rule:evenodd;stroke:#000000;stroke-width:1px;stroke-linecap:butt;stroke-linejoin:miter;stroke-opacity:1"
       id="path2987-1-5-6"
       sodipodi:cx="107.07617"
       sodipodi:cy="949.3266"
       sodipodi:rx="30.304577"
       sodipodi:ry="30.304577"
       d="m 137.38075,949.3266 c 0,16.73675 -13.56782,30.30458 -30.30458,30.30458 -16.736754,0 -30.304575,-13.56783 -30.304575,-30.30458 0,-16.73676 13.567821,-30.30458 30.304575,-30.30458 16.73676,0 30.30458,13.56782 30.30458,30.30458 z" />
    <path
       style="fill:none;stroke:#000000;stroke-width:1px;stroke-linecap:butt;stroke-linejoin:miter;stroke-opacity:1"
       d="m 127.04793,241.21644 361.28112,2.16563"
       id="path3433"
       inkscape:connector-curvature="0"
       transform="translate(43.667847,345.76555)" />
    <path
       transform="matrix(0.75,0,0,0.75,271.04921,-123.93014)"
       sodipodi:type="arc"
       style="fill:#cccccc;fill-rule:evenodd;stroke:#000000;stroke-width:1px;stroke-linecap:butt;stroke-linejoin:miter;stroke-opacity:1"
       id="path2987-1-5-8"
       sodipodi:cx="107.07617"
       sodipodi:cy="949.3266"
       sodipodi:rx="30.304577"
       sodipodi:ry="30.304577"
       d="m 137.38075,949.3266 c 0,16.73675 -13.56782,30.30458 -30.30458,30.30458 -16.736754,0 -30.304575,-13.56783 -30.304575,-30.30458 0,-16.73676 13.567821,-30.30458 30.304575,-30.30458 16.73676,0 30.30458,13.56782 30.30458,30.30458 z" />
  </g>
</svg>
